<svg width="14" height="20" viewBox="0 0 14 20" fill="none" xmlns="http://www.w3.org/2000/svg">
<path d="M6.904 19.182C5.69067 19.182 4.59867 18.974 3.628 18.558C2.65733 18.1247 1.89467 17.518 1.34 16.738C0.785333 15.958 0.508 15.048 0.508 14.008H3.68C3.74933 14.788 4.05267 15.4293 4.59 15.932C5.14467 16.4347 5.916 16.686 6.904 16.686C7.92667 16.686 8.724 16.4433 9.296 15.958C9.868 15.4553 10.154 14.814 10.154 14.034C10.154 13.4273 9.972 12.9333 9.608 12.552C9.26133 12.1707 8.81933 11.876 8.282 11.668C7.762 11.46 7.034 11.2347 6.098 10.992C4.91933 10.68 3.95733 10.368 3.212 10.056C2.484 9.72667 1.86 9.224 1.34 8.548C0.82 7.872 0.56 6.97067 0.56 5.844C0.56 4.804 0.82 3.894 1.34 3.114C1.86 2.334 2.588 1.736 3.524 1.32C4.46 0.903999 5.54333 0.695999 6.774 0.695999C8.52467 0.695999 9.95467 1.138 11.064 2.022C12.1907 2.88867 12.8147 4.08467 12.936 5.61H9.66C9.608 4.95133 9.296 4.388 8.724 3.92C8.152 3.452 7.398 3.218 6.462 3.218C5.61267 3.218 4.91933 3.43467 4.382 3.868C3.84467 4.30133 3.576 4.92533 3.576 5.74C3.576 6.29467 3.74067 6.754 4.07 7.118C4.41667 7.46467 4.85 7.742 5.37 7.95C5.89 8.158 6.60067 8.38333 7.502 8.626C8.698 8.95533 9.66867 9.28467 10.414 9.614C11.1767 9.94333 11.818 10.4547 12.338 11.148C12.8753 11.824 13.144 12.734 13.144 13.878C13.144 14.7967 12.8927 15.6633 12.39 16.478C11.9047 17.2927 11.1853 17.9513 10.232 18.454C9.296 18.9393 8.18667 19.182 6.904 19.182Z" fill="#3252DF"/>
</svg>
