<svg width="147" height="27" viewBox="0 0 147 27" fill="none" xmlns="http://www.w3.org/2000/svg">
<path d="M6.904 20.182C5.69067 20.182 4.59867 19.974 3.628 19.558C2.65733 19.1247 1.89467 18.518 1.34 17.738C0.785333 16.958 0.508 16.048 0.508 15.008H3.68C3.74933 15.788 4.05267 16.4293 4.59 16.932C5.14467 17.4347 5.916 17.686 6.904 17.686C7.92667 17.686 8.724 17.4433 9.296 16.958C9.868 16.4553 10.154 15.814 10.154 15.034C10.154 14.4273 9.972 13.9333 9.608 13.552C9.26133 13.1707 8.81933 12.876 8.282 12.668C7.762 12.46 7.034 12.2347 6.098 11.992C4.91933 11.68 3.95733 11.368 3.212 11.056C2.484 10.7267 1.86 10.224 1.34 9.548C0.82 8.872 0.56 7.97067 0.56 6.844C0.56 5.804 0.82 4.894 1.34 4.114C1.86 3.334 2.588 2.736 3.524 2.32C4.46 1.904 5.54333 1.696 6.774 1.696C8.52467 1.696 9.95467 2.138 11.064 3.022C12.1907 3.88867 12.8147 5.08467 12.936 6.61H9.66C9.608 5.95133 9.296 5.388 8.724 4.92C8.152 4.452 7.398 4.218 6.462 4.218C5.61267 4.218 4.91933 4.43467 4.382 4.868C3.84467 5.30133 3.576 5.92533 3.576 6.74C3.576 7.29467 3.74067 7.754 4.07 8.118C4.41667 8.46467 4.85 8.742 5.37 8.95C5.89 9.158 6.60067 9.38333 7.502 9.626C8.698 9.95533 9.66867 10.2847 10.414 10.614C11.1767 10.9433 11.818 11.4547 12.338 12.148C12.8753 12.824 13.144 13.734 13.144 14.878C13.144 15.7967 12.8927 16.6633 12.39 17.478C11.9047 18.2927 11.1853 18.9513 10.232 19.454C9.296 19.9393 8.18667 20.182 6.904 20.182ZM20.0994 8.092V16.022C20.0994 16.5593 20.2207 16.9493 20.4634 17.192C20.7234 17.4173 21.1567 17.53 21.7634 17.53H23.5834V20H21.2434C19.9087 20 18.8861 19.688 18.1754 19.064C17.4647 18.44 17.1094 17.426 17.1094 16.022V8.092H15.4194V5.674H17.1094V2.112H20.0994V5.674H23.5834V8.092H20.0994ZM39.4452 12.486C39.4452 13.0233 39.4106 13.5087 39.3412 13.942H28.3952C28.4819 15.086 28.9066 16.0047 29.6692 16.698C30.4319 17.3913 31.3679 17.738 32.4772 17.738C34.0719 17.738 35.1986 17.0707 35.8572 15.736H39.0552C38.6219 17.0533 37.8332 18.1367 36.6892 18.986C35.5626 19.818 34.1586 20.234 32.4772 20.234C31.1079 20.234 29.8772 19.9307 28.7852 19.324C27.7106 18.7 26.8612 17.8333 26.2372 16.724C25.6306 15.5973 25.3272 14.2973 25.3272 12.824C25.3272 11.3507 25.6219 10.0593 26.2112 8.95C26.8179 7.82333 27.6586 6.95667 28.7332 6.35C29.8252 5.74333 31.0732 5.44 32.4772 5.44C33.8292 5.44 35.0339 5.73467 36.0912 6.324C37.1486 6.91333 37.9719 7.74533 38.5612 8.82C39.1506 9.87733 39.4452 11.0993 39.4452 12.486ZM36.3512 11.55C36.3339 10.458 35.9439 9.58267 35.1812 8.924C34.4186 8.26533 33.4739 7.936 32.3472 7.936C31.3246 7.936 30.4492 8.26533 29.7212 8.924C28.9932 9.56533 28.5599 10.4407 28.4212 11.55H36.3512ZM55.2581 5.674L46.4701 26.734H43.4021L46.3141 19.766L40.6721 5.674H43.9741L48.0041 16.594L52.1901 5.674H55.2581Z" fill="#3252DF"/>
<path d="M63.1629 12.85L69.7669 20H65.7629L60.4589 13.838V20H57.4949V0.76H60.4589V11.94L65.6589 5.674H69.7669L63.1629 12.85ZM85.0214 12.486C85.0214 13.0233 84.9867 13.5087 84.9174 13.942H73.9714C74.0581 15.086 74.4827 16.0047 75.2454 16.698C76.0081 17.3913 76.9441 17.738 78.0534 17.738C79.6481 17.738 80.7747 17.0707 81.4334 15.736H84.6314C84.1981 17.0533 83.4094 18.1367 82.2654 18.986C81.1387 19.818 79.7347 20.234 78.0534 20.234C76.6841 20.234 75.4534 19.9307 74.3614 19.324C73.2867 18.7 72.4374 17.8333 71.8134 16.724C71.2067 15.5973 70.9034 14.2973 70.9034 12.824C70.9034 11.3507 71.1981 10.0593 71.7874 8.95C72.3941 7.82333 73.2347 6.95667 74.3094 6.35C75.4014 5.74333 76.6494 5.44 78.0534 5.44C79.4054 5.44 80.6101 5.73467 81.6674 6.324C82.7247 6.91333 83.5481 7.74533 84.1374 8.82C84.7267 9.87733 85.0214 11.0993 85.0214 12.486ZM81.9274 11.55C81.9101 10.458 81.5201 9.58267 80.7574 8.924C79.9947 8.26533 79.0501 7.936 77.9234 7.936C76.9007 7.936 76.0254 8.26533 75.2974 8.924C74.5694 9.56533 74.1361 10.4407 73.9974 11.55H81.9274ZM93.1383 20.234C92.0116 20.234 90.9976 20.0347 90.0963 19.636C89.2123 19.22 88.5103 18.6653 87.9903 17.972C87.4703 17.2613 87.1929 16.4727 87.1583 15.606H90.2263C90.2783 16.2127 90.5643 16.724 91.0843 17.14C91.6216 17.5387 92.2889 17.738 93.0863 17.738C93.9183 17.738 94.5596 17.582 95.0103 17.27C95.4783 16.9407 95.7123 16.5247 95.7123 16.022C95.7123 15.4847 95.4523 15.086 94.9323 14.826C94.4296 14.566 93.6236 14.28 92.5143 13.968C91.4396 13.6733 90.5643 13.3873 89.8883 13.11C89.2123 12.8327 88.6229 12.408 88.1203 11.836C87.6349 11.264 87.3923 10.51 87.3923 9.574C87.3923 8.81133 87.6176 8.118 88.0683 7.494C88.5189 6.85267 89.1603 6.35 89.9923 5.986C90.8416 5.622 91.8123 5.44 92.9043 5.44C94.5336 5.44 95.8423 5.856 96.8303 6.688C97.8356 7.50267 98.3729 8.62067 98.4423 10.042H95.4783C95.4263 9.40067 95.1663 8.88933 94.6983 8.508C94.2303 8.12667 93.5976 7.936 92.8003 7.936C92.0203 7.936 91.4223 8.08333 91.0063 8.378C90.5903 8.67267 90.3823 9.06267 90.3823 9.548C90.3823 9.92933 90.5209 10.25 90.7983 10.51C91.0756 10.77 91.4136 10.978 91.8123 11.134C92.2109 11.2727 92.8003 11.4547 93.5803 11.68C94.6203 11.9573 95.4696 12.2433 96.1283 12.538C96.8043 12.8153 97.3849 13.2313 97.8703 13.786C98.3556 14.3407 98.6069 15.0773 98.6243 15.996C98.6243 16.8107 98.3989 17.5387 97.9483 18.18C97.4976 18.8213 96.8563 19.324 96.0243 19.688C95.2096 20.052 94.2476 20.234 93.1383 20.234ZM114.723 5.674L105.935 26.734H102.867L105.779 19.766L100.137 5.674H103.439L107.469 16.594L111.655 5.674H114.723ZM130.09 12.486C130.09 13.0233 130.055 13.5087 129.986 13.942H119.04C119.126 15.086 119.551 16.0047 120.314 16.698C121.076 17.3913 122.012 17.738 123.122 17.738C124.716 17.738 125.843 17.0707 126.502 15.736H129.7C129.266 17.0533 128.478 18.1367 127.334 18.986C126.207 19.818 124.803 20.234 123.122 20.234C121.752 20.234 120.522 19.9307 119.43 19.324C118.355 18.7 117.506 17.8333 116.882 16.724C116.275 15.5973 115.972 14.2973 115.972 12.824C115.972 11.3507 116.266 10.0593 116.856 8.95C117.462 7.82333 118.303 6.95667 119.378 6.35C120.47 5.74333 121.718 5.44 123.122 5.44C124.474 5.44 125.678 5.73467 126.736 6.324C127.793 6.91333 128.616 7.74533 129.206 8.82C129.795 9.87733 130.09 11.0993 130.09 12.486ZM126.996 11.55C126.978 10.458 126.588 9.58267 125.826 8.924C125.063 8.26533 124.118 7.936 122.992 7.936C121.969 7.936 121.094 8.26533 120.366 8.924C119.638 9.56533 119.204 10.4407 119.066 11.55H126.996ZM140.235 5.44C141.361 5.44 142.367 5.674 143.251 6.142C144.152 6.61 144.854 7.30333 145.357 8.222C145.859 9.14067 146.111 10.25 146.111 11.55V20H143.173V11.992C143.173 10.7093 142.852 9.73 142.211 9.054C141.569 8.36067 140.694 8.014 139.585 8.014C138.475 8.014 137.591 8.36067 136.933 9.054C136.291 9.73 135.971 10.7093 135.971 11.992V20H133.007V5.674H135.971V7.312C136.456 6.72267 137.071 6.26333 137.817 5.934C138.579 5.60467 139.385 5.44 140.235 5.44Z" fill="black"/>
</svg>
